<svg width="556" height="291" viewBox="0 0 556 291" fill="none" xmlns="http://www.w3.org/2000/svg">
<ellipse cx="278" cy="145.5" rx="241" ry="145.5" fill="url(#paint0_radial_3_70)"/>
<path d="M348.017 133.807L338.419 126.149L320.231 138.707L340.282 148.509L348.46 149.734L348.017 133.807Z" fill="url(#paint1_linear_3_70)"/>
<path d="M288.78 49.8825L301.253 41L301.068 128.599L284.849 139.626C284.849 139.626 289.568 129.718 291.082 122.78C292.545 116.073 292.57 105.015 292.57 105.015L288.78 49.8825Z" fill="url(#paint2_linear_3_70)"/>
<path d="M313.086 51.7206L301.254 41.0004L301.068 128.6L316.988 139.932C316.988 139.932 312.611 129.985 311.221 123.393C309.787 116.59 309.97 105.934 309.97 105.934L313.086 51.7206Z" fill="url(#paint3_linear_3_70)"/>
<path d="M237.576 52.6392L245.781 63.9719L245.051 154.634L236.364 159.229L237.576 52.6392Z" fill="url(#paint4_linear_3_70)"/>
<path d="M245.781 63.9722L254.705 86.0252L254.785 146.058L245.051 154.634L245.781 63.9722Z" fill="url(#paint5_linear_3_70)"/>
<path d="M254.705 86.0249L245.781 63.9719L237.576 52.6392L258.436 63.9719L268.903 86.0249L281.61 138.401L263.455 124.005L254.705 86.0249Z" fill="url(#paint6_linear_3_70)"/>
<path d="M346.222 87.2499L352.346 64.5843L361.851 54.1704L340.012 61.7034L329.704 81.3192L320.231 138.707L338.419 126.149L346.222 87.2499Z" fill="url(#paint7_linear_3_70)"/>
<path d="M254.762 133.5L263.416 123.699L281.61 138.401L262.155 145.752L254.785 146.058L254.762 133.5Z" fill="url(#paint8_linear_3_70)"/>
<path d="M236.364 159.229L245.051 154.634L246.835 178.831H276.467L301.976 205.172L302.725 223.55L271.054 187.407H239.262L236.364 159.229Z" fill="url(#paint9_linear_3_70)"/>
<path d="M366.892 158.923L355.362 153.103L356.411 178.831L325.233 178.831L301.974 205.172L302.723 223.55L330.895 187.1L367.011 187.1L366.892 158.923Z" fill="url(#paint10_linear_3_70)"/>
<path d="M253.094 172.093H351.249L356.411 178.832H246.835L253.094 172.093Z" fill="url(#paint11_linear_3_70)"/>
<path d="M352.346 64.5843L361.851 54.1704L366.93 159.228L355.401 153.409L352.346 64.5843Z" fill="url(#paint12_linear_3_70)"/>
<path d="M346.222 87.2505L352.346 64.585L355.401 153.41L348.46 149.734L346.222 87.2505Z" fill="url(#paint13_linear_3_70)"/>
<path d="M269.771 164.742L277.544 150.346C277.544 150.346 280.638 148.832 282.1 147.283C283.776 145.508 285.071 144.332 285.116 141.77C285.131 140.941 284.849 139.626 284.849 139.626L301.068 128.6L301.473 144.22L276.467 178.831L270.687 172.093L269.771 164.742Z" fill="url(#paint14_linear_3_70)"/>
<path d="M331.927 165.661L324.384 149.734C324.384 149.734 321.678 148.11 320.298 146.671C318.796 145.104 317.795 144.09 317.256 142.076C317.034 141.247 316.988 139.932 316.988 139.932L301.068 128.6L301.473 144.22L325.236 178.831L332.729 172.093L331.927 165.661Z" fill="url(#paint15_linear_3_70)"/>
<path d="M295.134 152.797L301.378 158.31L307.481 152.797L315.03 163.823L304.951 201.804L301.976 205.173L298.816 202.11L286.979 164.13L295.134 152.797Z" fill="url(#paint16_linear_3_70)"/>
<path d="M262.155 145.752L269.527 142.995C269.527 142.995 269.726 144.529 270.142 145.445C271.054 147.457 272.335 148.435 274.342 149.427C275.527 150.013 277.544 150.346 277.544 150.346L274.295 156.472C274.295 156.472 270.188 153.912 267.857 151.878C265.392 149.725 262.155 145.752 262.155 145.752Z" fill="url(#paint17_linear_3_70)"/>
<path d="M254.747 145.752H262.155C262.155 145.752 265.392 149.725 267.857 151.878C270.188 153.912 274.295 156.472 274.295 156.472L269.771 164.742C269.771 164.742 264.348 162.788 261.249 160.76C258.082 158.688 253.964 154.328 253.964 154.328L254.747 145.752Z" fill="url(#paint18_radial_3_70)"/>
<path d="M245.051 154.634L254.747 145.752L253.094 172.093L246.835 178.831L246.303 172.093L245.051 154.634Z" fill="url(#paint19_linear_3_70)"/>
<path d="M324.384 149.734C324.384 149.734 328.618 150.201 330.443 148.815C331.87 147.731 332.724 144.833 332.724 144.833L340.282 148.509C340.282 148.509 338.458 152.685 336.416 154.634C333.968 156.971 328.579 158.616 328.579 158.616L324.384 149.734Z" fill="url(#paint20_linear_3_70)"/>
<path d="M348.46 149.734L355.401 153.409L356.188 172.093L356.411 178.832L351.249 172.093L348.46 149.734Z" fill="url(#paint21_linear_3_70)"/>
<path d="M328.579 158.616C328.579 158.616 333.968 156.971 336.416 154.634C338.458 152.685 340.282 148.508 340.282 148.508L348.46 149.733L349.071 154.634C349.071 154.634 345.458 160.08 342.001 162.291C338.576 164.483 331.927 165.661 331.927 165.661L328.579 158.616Z" fill="url(#paint22_radial_3_70)"/>
<path d="M276.467 178.832H291.591L284.063 182.813L289.998 188.327L291.591 178.832L293.205 184.345L298.778 201.803L276.467 178.832Z" fill="url(#paint23_radial_3_70)"/>
<path d="M325.236 178.832H311.037L319.368 181.282L313.109 188.02L311.037 178.832L304.951 201.803L325.236 178.832Z" fill="url(#paint24_radial_3_70)"/>
<path d="M281.182 172.093L286.979 164.129L289.516 172.093L286.28 168.417L285.12 170.255L287.667 169.643L289.516 172.093H283.96H281.182Z" fill="url(#paint25_radial_3_70)"/>
<path d="M320.691 172.093L315.03 163.823L312.666 172.093L314.985 168.418L316.604 170.255L313.904 169.643L312.666 172.093H318.222H320.691Z" fill="url(#paint26_radial_3_70)"/>
<path d="M239.262 187.408H271.074L272.133 188.633H271.549H240.51L239.262 187.408Z" fill="#033246"/>
<path d="M330.824 187.101H367.011L366.892 158.922L368.128 188.633H331.397C331.397 188.633 323.589 197.859 318.8 203.947C312.812 211.559 304.924 223.856 304.924 223.856L302.725 223.55L330.824 187.101Z" fill="#033246"/>
<path d="M253.964 154.328L254.658 154.941L254.328 172.093H253.094L253.964 154.328Z" fill="#033246"/>
<path d="M254.705 86.0254L255.395 89.0883L255.573 132.582L254.762 133.501L254.705 86.0254Z" fill="#033246"/>
<path d="M331.927 165.661C331.927 165.661 333.582 165.312 334.628 165.048C336.28 164.631 338.797 163.823 338.797 163.823L332.582 165.967L333.346 172.093H332.729L331.927 165.661Z" fill="#033246"/>
<path d="M284.063 182.813L291.591 178.832L284.989 182.813L289.998 188.327L284.063 182.813Z" fill="#033246"/>
<path d="M311.037 178.832H311.346L313.38 187.714L313.109 188.02L311.037 178.832Z" fill="#033246"/>
<path d="M313.085 51.7202L313.47 52.3328L310.355 106.546L309.967 108.384L309.97 105.934L313.085 51.7202Z" fill="#503204"/>
<path d="M346.222 87.25L346.334 90.6192L339.075 126.455L341.85 128.906L338.419 126.149L346.222 87.25Z" fill="#033246"/>
<defs>
<radialGradient id="paint0_radial_3_70" cx="0" cy="0" r="1" gradientUnits="userSpaceOnUse" gradientTransform="translate(292.357 150.832) rotate(95.4333) scale(140.8 232.278)">
<stop stop-color="#05026E"/>
<stop offset="0.51875" stop-color="#0500A0" stop-opacity="0.31"/>
<stop offset="1" stop-color="white" stop-opacity="0"/>
</radialGradient>
<linearGradient id="paint1_linear_3_70" x1="331.931" y1="131.05" x2="348.229" y2="144.393" gradientUnits="userSpaceOnUse">
<stop stop-color="#F8E630"/>
<stop offset="1" stop-color="#EFAA28"/>
</linearGradient>
<linearGradient id="paint2_linear_3_70" x1="287.996" y1="90.6192" x2="301.144" y2="90.5566" gradientUnits="userSpaceOnUse">
<stop stop-color="#ED9D02"/>
<stop offset="0.857292" stop-color="#F5E00C"/>
<stop offset="1" stop-color="#FFFDEA"/>
</linearGradient>
<linearGradient id="paint3_linear_3_70" x1="301.663" y1="83.8811" x2="312.606" y2="83.7765" gradientUnits="userSpaceOnUse">
<stop stop-color="#FFFAC8"/>
<stop offset="1" stop-color="#F5DB0B"/>
</linearGradient>
<linearGradient id="paint4_linear_3_70" x1="236.666" y1="102.258" x2="245.178" y2="102.467" gradientUnits="userSpaceOnUse">
<stop stop-color="#FAEC5B"/>
<stop offset="1" stop-color="#F5DD0C"/>
</linearGradient>
<linearGradient id="paint5_linear_3_70" x1="245.917" y1="109.61" x2="255.037" y2="109.74" gradientUnits="userSpaceOnUse">
<stop stop-color="#CB882F"/>
<stop offset="1" stop-color="#F4CB2D"/>
</linearGradient>
<linearGradient id="paint6_linear_3_70" x1="255.58" y1="95.52" x2="270.874" y2="90.1229" gradientUnits="userSpaceOnUse">
<stop stop-color="#F8E630"/>
<stop offset="1" stop-color="#FFFBD7"/>
</linearGradient>
<linearGradient id="paint7_linear_3_70" x1="324.677" y1="100.114" x2="344.808" y2="104.92" gradientUnits="userSpaceOnUse">
<stop stop-color="#FFFCDD"/>
<stop offset="1" stop-color="#F9E739"/>
</linearGradient>
<linearGradient id="paint8_linear_3_70" x1="254.559" y1="141.77" x2="271.286" y2="129.735" gradientUnits="userSpaceOnUse">
<stop stop-color="#EFAA28"/>
<stop offset="1" stop-color="#F8E630"/>
</linearGradient>
<linearGradient id="paint9_linear_3_70" x1="237.41" y1="187.407" x2="300.562" y2="186.777" gradientUnits="userSpaceOnUse">
<stop stop-color="#FFC601"/>
<stop offset="0.4875" stop-color="#E27A00"/>
<stop offset="1" stop-color="#FFD300"/>
</linearGradient>
<linearGradient id="paint10_linear_3_70" x1="334.675" y1="150.521" x2="325.211" y2="226.356" gradientUnits="userSpaceOnUse">
<stop stop-color="#FFC700"/>
<stop offset="0.497917" stop-color="#E2A300"/>
<stop offset="0.930208" stop-color="#FFD200"/>
</linearGradient>
<linearGradient id="paint11_linear_3_70" x1="247.532" y1="176.994" x2="355.429" y2="163.535" gradientUnits="userSpaceOnUse">
<stop stop-color="#E19500"/>
<stop offset="1" stop-color="#F6E00D"/>
</linearGradient>
<linearGradient id="paint12_linear_3_70" x1="353.418" y1="102.871" x2="365.046" y2="103.004" gradientUnits="userSpaceOnUse">
<stop stop-color="#F8E630"/>
<stop offset="1" stop-color="#FAC746"/>
</linearGradient>
<linearGradient id="paint13_linear_3_70" x1="347.344" y1="116.042" x2="353.88" y2="115.854" gradientUnits="userSpaceOnUse">
<stop stop-color="#F4C72C"/>
<stop offset="1" stop-color="#E7A619"/>
</linearGradient>
<linearGradient id="paint14_linear_3_70" x1="283.165" y1="128.6" x2="283.165" y2="178.831" gradientUnits="userSpaceOnUse">
<stop stop-color="#ED9E03"/>
<stop offset="0.305208" stop-color="#FFEC48"/>
<stop offset="0.551318" stop-color="#FFF29D"/>
<stop offset="0.726178" stop-color="#FDE240"/>
<stop offset="1" stop-color="#F4C328"/>
</linearGradient>
<linearGradient id="paint15_linear_3_70" x1="313.414" y1="128.6" x2="313.414" y2="178.831" gradientUnits="userSpaceOnUse">
<stop offset="0.117708" stop-color="#F1B706"/>
<stop offset="0.555208" stop-color="#FFFAC8"/>
<stop offset="1" stop-color="#F6DE1A"/>
</linearGradient>
<linearGradient id="paint16_linear_3_70" x1="287.209" y1="165.967" x2="314.946" y2="165.334" gradientUnits="userSpaceOnUse">
<stop stop-color="#ED9E03"/>
<stop offset="0.315625" stop-color="#F4D60B"/>
<stop offset="0.500496" stop-color="#FAE2B4"/>
<stop offset="0.690625" stop-color="#F6DE19"/>
<stop offset="1" stop-color="#E0C700"/>
</linearGradient>
<linearGradient id="paint17_linear_3_70" x1="269.219" y1="142.995" x2="269.219" y2="156.472" gradientUnits="userSpaceOnUse">
<stop stop-color="#F7DD2F"/>
<stop offset="1" stop-color="#EFAA28"/>
</linearGradient>
<radialGradient id="paint18_radial_3_70" cx="0" cy="0" r="1" gradientUnits="userSpaceOnUse" gradientTransform="translate(267.51 151.571) rotate(126.82) scale(11.4785 20.9431)">
<stop offset="0.451042" stop-color="#ED9E03"/>
<stop offset="1" stop-color="#F4C72C"/>
</radialGradient>
<linearGradient id="paint19_linear_3_70" x1="248.882" y1="145.752" x2="248.882" y2="172.093" gradientUnits="userSpaceOnUse">
<stop stop-color="#CB882F"/>
<stop offset="1" stop-color="#FFA800"/>
</linearGradient>
<linearGradient id="paint20_linear_3_70" x1="331.798" y1="144.833" x2="331.798" y2="158.616" gradientUnits="userSpaceOnUse">
<stop stop-color="#F7DD2F"/>
<stop offset="1" stop-color="#F0AC29"/>
</linearGradient>
<linearGradient id="paint21_linear_3_70" x1="351.701" y1="149.734" x2="351.701" y2="172.093" gradientUnits="userSpaceOnUse">
<stop stop-color="#CE8A2D"/>
<stop offset="1" stop-color="#FEA801"/>
</linearGradient>
<radialGradient id="paint22_radial_3_70" cx="0" cy="0" r="1" gradientUnits="userSpaceOnUse" gradientTransform="translate(335.875 155.247) rotate(45.8358) scale(10.6745 20.1564)">
<stop offset="0.398958" stop-color="#EEA106"/>
<stop offset="1" stop-color="#F8E430"/>
</radialGradient>
<radialGradient id="paint23_radial_3_70" cx="0" cy="0" r="1" gradientUnits="userSpaceOnUse" gradientTransform="translate(288.381 185.264) rotate(58.9889) scale(19.6554 14.9533)">
<stop stop-color="#CA7D07"/>
<stop offset="1" stop-color="#352000"/>
</radialGradient>
<radialGradient id="paint24_radial_3_70" cx="0" cy="0" r="1" gradientUnits="userSpaceOnUse" gradientTransform="translate(313.768 185.876) rotate(117.553) scale(18.3102 20.4726)">
<stop stop-color="#CA7D07"/>
<stop offset="1" stop-color="#3F2600"/>
</radialGradient>
<radialGradient id="paint25_radial_3_70" cx="0" cy="0" r="1" gradientUnits="userSpaceOnUse" gradientTransform="translate(284.852 168.111) rotate(82.89) scale(4.01265 4.13494)">
<stop stop-color="#EA9107"/>
<stop offset="1" stop-color="#BD7300"/>
</radialGradient>
<radialGradient id="paint26_radial_3_70" cx="0" cy="0" r="1" gradientUnits="userSpaceOnUse" gradientTransform="translate(316.163 167.958) rotate(82.89) scale(4.16698 3.98179)">
<stop stop-color="#CA7D07"/>
<stop offset="1" stop-color="#A86806"/>
</radialGradient>
</defs>
</svg>
